<?xml version="1.0" encoding="utf-8"?>
<?xml-stylesheet type="text/xsl" href="rss1.xsl"?>
<rss version="2.0" xmlns:atom="http://www.w3.org/2005/Atom" xmlns:content="http://purl.org/rss/1.0/modules/content/" xmlns:dc="http://purl.org/dc/elements/1.1/" xmlns:media="http://search.yahoo.com/mrss/">
<channel>
 <title>Getty</title>
 <link>http://www.gettyimg.com/</link>
 <atom:link href="http://www.gettyimg.com/" rel="self" type="application/rss+xml" />

 
                <item>
                <title><![CDATA[【Requests】[REQ AUD] - Miley Cyrus – Live at Corona Capital 2022 audio album]]></title>
                <link><![CDATA[https://sharemania.us/threads/miley-cyrus-%E2%80%93-live-at-corona-capital-2022-audio-album.237304/]]></link>
                <description><![CDATA[<article>
<blockquote class="messageText SelectQuoteContainer ugc baseHtml">
hey! does anyone have an audio album of this? I can't find it anywhere <img src="styles/default/xenforo/smilies/unhappy-48.png" class="mceSmilie" alt=":(" title="Frown    :("><br>
quality doesn't matter, MP3/FLAC. all work! thanks<br>
<br>
<span data-s9e-mediaembed="youtube" style="display:inline-block;width:100%;max-width:640px"><span style="display:block;overflow:hidden;position:relative;padding-bottom:56.25%"><iframe allowfullscreen="" loading="lazy" scrolling="no" style="background:url(https://i.ytimg.com/vi/-qTcA36IQSU/hqdefault.jpg) 50% 50% / cover;border:0;height:100%;left:0;position:absolute;width:100%" src="https://www.youtube.com/embed/-qTcA36IQSU"></iframe></span></span>
<div class="messageTextEndMarker">&nbsp;</div>
</blockquote>
</article>]]></description>
                <author><![CDATA[downloadpop]]></author>
                </item>

                
                <item>
                <title><![CDATA[【UPSCALED】B3 - Can't Fight The Feeling (1080p)]]></title>
                <link><![CDATA[https://sharemania.us/threads/b3-cant-fight-the-feeling-1080p.237305/]]></link>
                <description><![CDATA[<article>
<blockquote class="messageText SelectQuoteContainer ugc baseHtml">
<div style="text-align: center"><a href="https://ibb.co/Bqw4LYK" target="_blank" class="externalLink" rel="nofollow"><img src="https://i.ibb.co/TmrKcNq/B3-Can-039-t-Fight-The-Feeling-iris2-mp4-thumbs.jpg" class="bbCodeImage LbImage" alt="[​IMG]" data-url="https://i.ibb.co/TmrKcNq/B3-Can-039-t-Fight-The-Feeling-iris2-mp4-thumbs.jpg"></a><br>
<a href="https://ibb.co/09tBsDL" target="_blank" class="externalLink" rel="nofollow"><img src="https://i.ibb.co/rpsbd7h/B3-Can-039-t-Fight-The-Feeling-iris2-mp4-snapshot-00-39-514.jpg" class="bbCodeImage LbImage" alt="[​IMG]" data-url="https://i.ibb.co/rpsbd7h/B3-Can-039-t-Fight-The-Feeling-iris2-mp4-snapshot-00-39-514.jpg"></a><br>
<a href="https://ibb.co/S3TcgPB" target="_blank" class="externalLink" rel="nofollow"><img src="https://i.ibb.co/4Vy2L7p/B3-Can-039-t-Fight-The-Feeling-iris2-mp4-snapshot-01-42-570.jpg" class="bbCodeImage LbImage" alt="[​IMG]" data-url="https://i.ibb.co/4Vy2L7p/B3-Can-039-t-Fight-The-Feeling-iris2-mp4-snapshot-01-42-570.jpg"></a><br>
<a href="https://ibb.co/TkykksB" target="_blank" class="externalLink" rel="nofollow"><img src="https://i.ibb.co/yX2XXrn/B3-Can-039-t-Fight-The-Feeling-iris2-mp4-snapshot-01-46-391.jpg" class="bbCodeImage LbImage" alt="[​IMG]" data-url="https://i.ibb.co/yX2XXrn/B3-Can-039-t-Fight-The-Feeling-iris2-mp4-snapshot-01-46-391.jpg"></a><br>
<br>
<b>FONTE: FLV</b><br>
<br>
<div class="bbCodeBlock bbCodeVfcHH HiddenContent">
<div class="attribution type">Hidden Content:</div>
<blockquote>You must either reply or click 'Like' to see the hidden information contained here.</blockquote>
</div></div>
<div class="messageTextEndMarker">&nbsp;</div>
</blockquote>
</article>]]></description>
                <author><![CDATA[vjrhymes]]></author>
                </item>

                
                <item>
                <title><![CDATA[【Music Videos】DJ Bobo - Everybody (1080p 5.1) (Clean)]]></title>
                <link><![CDATA[https://sharemania.us/threads/dj-bobo-everybody-1080p-5-1-clean.237303/]]></link>
                <description><![CDATA[<article>
<blockquote class="messageText SelectQuoteContainer ugc baseHtml">
<img src="https://i.ibb.co/wRq049x/DJ-Bobo-Everybody-1080p-5-1-mp4-thumbs-2024-02-08-20-06-45.jpg" class="bbCodeImage LbImage" alt="[​IMG]" data-url="https://i.ibb.co/wRq049x/DJ-Bobo-Everybody-1080p-5-1-mp4-thumbs-2024-02-08-20-06-45.jpg" style=""> <br>
<br>
<div class="ToggleTriggerAnchor bbCodeSpoilerContainer">
<button type="button" class="button bbCodeSpoilerButton ToggleTrigger Tooltip JsOnly" data-target="> .SpoilerTarget"><span>Spoiler: <span class="SpoilerTitle">MediaInfo</span></span></button>
<div class="SpoilerTarget bbCodeSpoilerText">DJ Bobo - Everybody (1080p 5.1).mp4<br>
Format : MPEG-4<br>
Format profile : Base Media / Version 2<br>
Codec ID : mp42 (mp42/mp41)<br>
File size : 280 MiB<br>
Duration : 3 min 50 s<br>
Overall bit rate mode : Variable<br>
Overall bit rate : 10.2 Mb/s<br>
Frame rate : 25.000 FPS<br>
Encoded date : 2024-02-07 03:01:07 UTC<br>
Tagged date : 2024-02-07 03:01:21 UTC<br>
TIM : 00:00:00:00<br>
TSC : 25<br>
TSZ : 1<br>
<br>
Video<br>
ID : 1<br>
Format : AVC<br>
Format/Info : Advanced Video Codec<br>
Format profile : Main@L4.1<br>
Format settings : CABAC / 4 Ref Frames<br>
Format settings, CABAC : Yes<br>
Format settings, Reference : 4 frames<br>
Codec ID : avc1<br>
Codec ID/Info : Advanced Video Coding<br>
Duration : 3 min 50 s<br>
Bit rate : 9 858 kb/s<br>
Width : 1 440 pixels<br>
Height : 1 080 pixels<br>
Display aspect ratio : 4:3<br>
Frame rate mode : Constant<br>
Frame rate : 25.000 FPS<br>
Color space : YUV<br>
Chroma subsampling : 4:2:0<br>
Bit depth : 8 bits<br>
Scan type : Progressive<br>
Bits/(Pixel*Frame) : 0.254<br>
Stream size : 271 MiB (97%)<br>
Language : English<br>
Encoded date : 2024-02-07 03:01:07 UTC<br>
Tagged date : 2024-02-07 03:01:07 UTC<br>
Color range : Limited<br>
Color primaries : BT.709<br>
Transfer characteristics : BT.709<br>
Matrix coefficients : BT.709<br>
Codec configuration box : avcC<br>
<br>
Audio<br>
ID : 2<br>
Format : AAC LC<br>
Format/Info : Advanced Audio Codec Low Complexity<br>
Codec ID : mp4a-40-2<br>
Duration : 3 min 50 s<br>
Source duration : 3 min 50 s<br>
Bit rate mode : Variable<br>
Bit rate : 317 kb/s<br>
Maximum bit rate : 1 275 kb/s<br>
Channel(s) : 6 channels<br>
Channel layout : C L R Ls Rs LFE<br>
Sampling rate : 48.0 kHz<br>
Frame rate : 46.875 FPS (1024 SPF)<br>
Compression mode : Lossy<br>
Stream size : 8.73 MiB (3%)<br>
Source stream size : 8.73 MiB (3%)<br>
Language : English<br>
Encoded date : 2024-02-07 03:01:07 UTC<br>
Tagged date : 2024-02-07 03:01:07 UTC</div>
</div><br>
<div class="bbCodeBlock bbCodeVfcHH HiddenContent">
<div class="attribution type">Hidden Content:</div>
<blockquote>You must reply before you can see the hidden data contained here.</blockquote>
</div>
<div class="messageTextEndMarker">&nbsp;</div>
</blockquote>
</article>]]></description>
                <author><![CDATA[DJ-RoGeRs-BS]]></author>
                </item>

                </channel></rss>